<?xml version="1.0" standalone="no"?>
<!DOCTYPE svg PUBLIC "-//W3C//DTD SVG 1.1//EN" "http://www.w3.org/Graphics/SVG/1.1/DTD/svg11.dtd">
<svg xmlns="http://www.w3.org/2000/svg" xmlns:xlink="http://www.w3.org/1999/xlink" version="1.1" id="Layer_1" x="0px" y="0px" viewBox="0 0 2459.6 666.2" style="enable-background:new 0 0 2459.6 666.2;" xml:space="preserve" width="2459.60009765625" height="666.2000122070312">
<style type="text/css">
	.st0{fill:#E10098;}
</style>
<g>
	<path class="st0" d="M168.7,457.8l-17.8,37.4l-10.9-4.8c3.8-7.5,5.4-13.6,4.7-18.5c-0.7-4.9-2.6-8.8-5.8-11.8c-3.2-3-6.9-5.4-11-7   l-10.7-4.5c-3.5-1.4-6.6-2.1-9.2-1.9c-2.6,0.1-5,1.3-7.3,3.6c-2.2,2.3-4.7,6.1-7.3,11.3l-15.3,30.1l20.4,9.3   c2.5-0.5,4.7-1.3,6.6-2.4c1.9-1.1,3.7-2.6,5.3-4.5c1.6-1.9,3.1-4.4,4.6-7.5l12.5,5.5l-23.4,46.2L93,533.3c2.8-5.6,4-10.1,3.5-13.4   c-0.5-3.3-2.1-5.8-5-7.7c-2.8-1.9-6.5-3.8-11-5.6l-8.4-3.3l-18.5,36.3c-1.7,3.6-3.5,6.8-5.1,9.6c-1.7,2.9-3,5.1-4.1,6.7l30.9,13.5   c4.7,2.1,9.5,3.1,14.3,3.1s9.5-1.6,14.1-4.8c4.5-3.2,8.7-8.5,12.4-15.8l11.1,4.9l-22.3,41.1L0,551.4l5.5-10.8c3.8,1.5,7,2.2,9.6,2   c2.6-0.2,5-1.6,7.2-4c2.2-2.5,4.6-6.2,7.1-11.2l40-78.3c1.6-3.3,3.3-6.4,5-9.3c1.7-2.9,3.1-5.2,4.1-6.8c-2.3-0.9-5-1.9-8-3.2   c-3-1.2-5.4-2.2-7.2-2.8l6.5-13L168.7,457.8z"/>
	<path class="st0" d="M220.7,634.3l-11.4-87.7c-0.5-3.3-0.9-7.2-1.3-11.7c-0.4-4.5-0.7-9.4-0.9-14.8c-0.2-5.3-0.3-10.7-0.2-16.3   l-0.2,0c-2,7.4-3.9,14.5-5.7,21.3c-1.8,6.8-3.7,13.3-5.6,19.5l-13.7,44.5c-1.1,3.5-2.2,6.9-3.4,10.3c-1.1,3.4-2.2,6-3.1,8.1   c2.6,0.4,5.5,1,8.8,1.5c3.2,0.6,5.8,1.1,7.7,1.5l-3.9,14L141.4,614l3.5-11.6c3.6,0.7,6.6,0.7,9.1,0.2c2.5-0.6,4.5-2.1,6.2-4.6   c1.7-2.5,3.3-6.2,4.9-11.1l26.6-85.3c1.1-3.5,2.2-6.9,3.4-10.3c1.1-3.4,2.1-6.1,2.9-8.1c-2.3-0.4-5.1-0.9-8.3-1.6   c-3.2-0.7-5.8-1.1-7.7-1.4l4.1-14l41.2,9.4l11.4,91.7c0.8,7,1.5,13.5,1.9,19.7c0.5,6.2,0.9,12.2,1.4,18l0.2,0   c3-4.1,6.2-8.5,9.4-13.2c3.2-4.7,6.3-9,9.1-12.8c6.6-9,13.3-18.2,20.1-27.4c6.8-9.2,13.7-18.4,20.5-27.5   c6.8-9.1,13.5-18.2,20.1-27.2l43.5,9.9l-3.3,11.7c-3.3-0.7-6.3-0.9-8.9-0.4c-2.7,0.4-4.9,1.9-6.9,4.4c-1.9,2.5-3.6,6.7-5.1,12.5   l-20.3,87.2c-0.8,3.4-1.7,6.7-2.7,9.8c-1,3.1-1.9,5.5-2.8,7.3c2.6,0.4,5.5,1,8.8,1.5c3.2,0.6,5.8,1.1,7.7,1.5l-4.1,14l-55.8-12.7   l3.3-11.7c3.6,0.7,6.7,0.8,9.2,0.3c2.5-0.5,4.7-2,6.6-4.7c1.9-2.7,3.5-7,4.9-13l12.9-54.6c0.4-1.9,1-4.6,1.9-8.2   c0.8-3.6,1.7-7.4,2.7-11.6c1-4.1,1.9-8.1,2.8-11.8l-0.4-0.1l-14.2,19.8l-65.5,89.6L220.7,634.3z"/>
	<path class="st0" d="M438.1,508.2c13.3,0.7,24.5,3,33.6,7.1c9.1,4,15.8,9.7,20.1,17c4.3,7.3,5.8,16.5,4.4,27.4   c-0.7,5.7-2.5,11.4-5.5,17.1c-3,5.7-7.3,10.8-13,15.3c-5.6,4.5-12.8,8-21.5,10.6c-8.7,2.5-19,3.6-30.8,3.1c-2.5-0.2-4.8-0.3-7-0.4   c-2.2-0.1-4.3-0.3-6.4-0.6l-2.8,23.4c-0.4,4.1-0.9,7.8-1.5,11.2c-0.6,3.3-1.1,6-1.5,7.8c1.9,0,4,0,6.4,0.1c2.3,0.1,4.7,0.1,7,0.2   c2.3,0.1,4.3,0.2,5.7,0.2l-1.6,14.5l-60.8-3.8l1.4-12c4.1,0.1,7.3-0.4,9.7-1.5c2.3-1.1,4.2-3.2,5.5-6.3c1.3-3.1,2.2-7.4,2.7-12.9   l10.1-87.3c0.5-3.6,1.1-7.1,1.6-10.5c0.6-3.3,1.1-6,1.5-7.8c-2.5,0-5.4-0.1-8.6-0.2c-3.2-0.1-5.9-0.2-7.9-0.2l1.8-14.4   c9.5,0.4,19,1,28.6,1.6C418.8,507.3,428.4,507.8,438.1,508.2z M436.2,521.4c-3.5-0.2-6.4,0.1-8.8,1.1c-2.3,1-4.1,2.9-5.3,5.7   c-1.2,2.9-2.1,6.8-2.7,12l-5.8,50.6c2,0.4,3.9,0.7,5.7,0.9c1.8,0.2,3.7,0.3,5.7,0.5c8,0.5,15.1-0.5,21.1-3   c6-2.5,10.8-6.4,14.4-11.7c3.6-5.3,5.8-11.9,6.7-19.7c0.7-7.2,0.3-13.1-1.2-17.7c-1.5-4.6-3.9-8.3-7-10.9   c-3.1-2.6-6.7-4.5-10.7-5.6C444.3,522.3,440.3,521.6,436.2,521.4z"/>
	<path class="st0" d="M583.2,504.7c13.2-0.7,24.5,1,34.1,5.2c9.6,4.2,17.4,10.1,23.6,17.5c6.1,7.4,10.7,15.7,13.7,24.8   c3,9.1,4.6,18.2,4.8,27.5c0.2,9.1-1.1,18.5-4,28.3c-2.9,9.8-7.5,18.9-13.7,27.4c-6.2,8.5-14.1,15.5-23.6,21   c-9.5,5.5-20.9,8.7-34.1,9.4c-13.6,0.8-25.2-0.9-34.9-5c-9.6-4.1-17.5-9.8-23.5-17.2c-6.1-7.4-10.6-15.6-13.5-24.8   c-2.9-9.2-4.4-18.4-4.5-27.6c-0.3-10,1.1-19.9,4.2-29.9c3-9.9,7.7-19.1,14.1-27.3c6.4-8.3,14.3-15.1,23.9-20.4   C559.3,508.5,570.5,505.4,583.2,504.7z M581.1,517.9c-8.1,0.5-14.9,2.9-20.6,7.3c-5.7,4.4-10.3,10-13.8,16.8   c-3.5,6.7-6,14-7.6,21.7c-1.5,7.7-2.2,15.3-1.9,22.6c0,7.2,0.9,14.8,2.7,22.7c1.8,7.9,4.7,15.3,8.5,22.1   c3.8,6.8,8.8,12.3,14.9,16.5c6.1,4.1,13.6,6,22.6,5.5c8.2-0.5,15.2-2.9,20.9-7.2c5.7-4.4,10.3-9.9,13.8-16.5   c3.5-6.7,6.1-13.9,7.6-21.6c1.5-7.7,2.3-15.3,2.1-22.6c-0.2-9.5-1.4-18.5-3.6-26.9c-2.2-8.4-5.3-15.7-9.4-21.9   c-4.1-6.2-9.1-11-15.1-14.2C596.1,518.6,589.1,517.3,581.1,517.9z"/>
	<path class="st0" d="M735.9,649.6l-54.2-110.1c-2.5-4.8-4.7-9-6.6-12.8c-1.9-3.8-3.1-6.9-3.6-9.5c-2.3,0.6-4.4,1.1-6.2,1.5   c-1.9,0.4-3.6,0.9-5.3,1.3l-2-14.4l59.5-11l1.3,12.1c-6.3,1.2-10.4,3.3-12.3,6.3c-1.8,3-1.3,8,1.6,14.9l20.9,47.6   c2.2,5.3,4.3,10.2,6.3,14.8c2,4.6,4.3,10.2,6.9,16.7l0.4-0.1c0.2-2.3,0.6-5.4,1.2-9.3s1.2-8.1,1.8-12.5c0.6-4.4,1.2-8.5,1.7-12.1   c0.5-3.6,0.9-6.2,1.2-7.9l13.1-78.9l14.9-2.8l35.8,76.4c2.5,5.2,4.8,10.6,7.1,16c2.3,5.5,4.5,11,6.8,16.5l0.4-0.1   c0.8-4.8,1.5-9.8,2.4-15c0.8-5.2,1.6-10.7,2.3-16.3c1-6.5,2-12.3,2.8-17.5c0.8-5.2,1.5-10,2.1-14.4c0.6-4.4,1.2-8.5,1.7-12.4   c0.5-3.9,1.1-7.8,1.8-11.6c0.4-3.4,1.1-6.9,2-10.5c0.9-3.7,2.1-6.9,3.7-9.7c-2.6,0.6-5.5,1.3-8.8,2.1c-3.3,0.8-5.9,1.4-7.9,1.9   l-2-14.4l47.2-8.7l1.6,12c-2.8,0.8-5.3,1.9-7.5,3.2c-2.1,1.3-4,3.1-5.6,5.3c-1.6,2.2-3,5.2-4.3,8.8c-1.3,3.7-2.4,8.2-3.3,13.6   l-21.3,123l-14.5,2.7l-37.3-75.9c-3-6-5.6-11.5-7.5-16.5c-2-5-3.8-9.7-5.5-14.2l-0.4,0.1c-0.4,5-0.9,9.9-1.4,14.8   c-0.5,4.9-1.3,9.9-2.2,15.2l-15,89.4L735.9,649.6z"/>
	<path class="st0" d="M981.7,430.8l10.4,40l-11.4,3.3c-1.9-8.2-4.7-13.9-8.3-17.2c-3.6-3.3-7.7-5.1-12.1-5.3   c-4.4-0.2-8.7,0.3-12.9,1.7l-11.1,3.4c-3.6,1.2-6.4,2.7-8.3,4.5c-1.9,1.8-3,4.3-3.2,7.5c-0.2,3.2,0.3,7.7,1.7,13.4l7.7,32.8l21.6-6   c1.6-2,2.7-4,3.5-6.1c0.8-2.1,1.2-4.3,1.1-6.8s-0.5-5.4-1.3-8.7l13.1-3.8l11.8,50.4l-11.6,3.4c-1.5-6.1-3.4-10.3-5.9-12.5   c-2.5-2.2-5.4-3.1-8.8-2.7c-3.4,0.4-7.4,1.3-12,2.8l-8.5,2.9l9.2,39.7c1,3.8,1.7,7.4,2.3,10.7c0.6,3.3,1,5.9,1.2,7.8l32.3-9.6   c4.9-1.4,9.2-3.7,12.9-6.8c3.7-3.1,6.2-7.4,7.7-12.7c1.4-5.4,1.2-12.1-0.7-20.1l11.6-3.4l9.4,45.8l-110.1,31.8l-2.7-11.8   c3.9-1.3,6.8-2.8,8.6-4.7c1.8-1.8,2.8-4.4,2.9-7.7c0.1-3.3-0.5-7.7-1.7-13.1l-19.7-85.7c-0.9-3.6-1.6-7-2.2-10.4   c-0.6-3.3-1-6-1.2-7.9c-2.4,0.8-5.1,1.7-8.2,2.7c-3.1,1-5.5,1.8-7.3,2.5l-3.4-14.1L981.7,430.8z"/>
	<path class="st0" d="M1060.6,403.5c12.6-4.4,23.7-6.5,33.2-6.4c9.5,0.1,17.4,2.6,23.6,7.3c6.2,4.8,10.7,12.2,13.4,22.2   c1.6,5.8,1.9,11.9,1,18.2c-0.9,6.3-3.4,12.5-7.5,18.6c-4.1,6.1-10.2,11.9-18.4,17.3c1.9,0.6,3.6,1.2,5.2,1.8c1.5,0.6,3,1.3,4.4,2   c1.4,0.7,2.9,1.5,4.4,2.6c1.5,1,3.1,2.2,4.9,3.7l16.2,13.7c4.1,3.4,7.7,6.1,10.9,8.2c3.1,2.1,6.2,3.5,9.1,4.1   c2.9,0.6,6.1,0.4,9.7-0.7l3.3,11.6l-31,10.7c-3.2-1.2-6.7-3.2-10.5-5.9c-3.8-2.7-7.8-5.9-11.8-9.6l-21.8-19.2   c-2.7-2.3-5.2-4.5-7.6-6.6c-2.4-2-4.8-3.6-7.3-4.8c-1.3,0.6-2.8,1.2-4.3,1.7c-1.5,0.5-3,1-4.3,1.4c-1.3,0.4-2.6,0.8-3.7,1.2   l8.4,28.8c1.2,3.9,2.2,7.5,2.9,10.9c0.8,3.3,1.3,5.9,1.7,7.8c1.5-0.7,3.3-1.4,5.4-2.2c2.1-0.8,4.2-1.6,6.2-2.4   c2-0.8,3.6-1.4,4.8-1.8l4.1,13.9l-56.1,19.5l-3.3-11.6c3.8-1.5,6.6-3.2,8.4-5.1c1.7-1.9,2.6-4.6,2.6-7.9c0-3.3-0.8-7.7-2.5-13   l-24.4-84.4c-0.9-3.6-1.8-7-2.5-10.3c-0.8-3.3-1.3-5.9-1.7-7.8c-2.3,1-5,2-8,3.1c-3,1.1-5.5,2.1-7.4,2.9l-3.9-14   c9.1-3.3,18.2-6.6,27.2-9.8C1042.4,409.9,1051.5,406.7,1060.6,403.5z M1063.9,416.1c-3.6,1.2-6.3,2.8-8,4.7   c-1.8,1.9-2.7,4.3-2.7,7.4c0,3.1,0.7,7.1,2.1,12.1l12.4,43c1.8-0.5,3.7-1,5.5-1.5c1.8-0.5,3.7-1.1,5.7-1.7   c7.7-2.8,13.8-6.3,18.2-10.3c4.4-4,7.2-8.9,8.3-14.5c1.1-5.7,0.6-12.3-1.5-19.7c-1.9-6.3-4.4-11.1-7.4-14.4   c-3.1-3.3-6.4-5.5-10.1-6.6c-3.7-1.1-7.5-1.4-11.4-0.9C1071,414.1,1067.3,414.9,1063.9,416.1z"/>
	<path class="st0" d="M1292.4,485.4c-10.1,4-19.8,6.2-29,6.5c-9.3,0.3-17.5-1.6-24.6-5.8c-7.1-4.2-12.5-11-16.1-20.5   c-2.5-6.6-3.3-13.3-2.4-20.2c0.9-6.9,3.4-13.5,7.4-19.7c4.1-6.2,9.6-11.6,16.6-16.3c-10,1.8-18.3,1.1-24.9-2.2   c-6.6-3.2-11.1-8.3-13.7-15.1c-3.2-8.4-3.8-16.4-1.8-24c2-7.7,5.9-14.4,11.8-20.3c5.9-5.9,13.1-10.5,21.8-13.8   c7.9-3.1,15.2-4.7,21.9-4.8c6.7-0.1,12.3,1.2,17,3.7c4.6,2.5,7.9,6.1,9.7,10.7c1.3,3.3,1.4,6.6,0.3,10c-1.1,3.4-3.5,5.9-7.1,7.3   c-3.3,1.3-6.3,1.4-9.1,0.3c-2.8-1.1-5-3.2-6.6-6.4c-0.4-1.1-0.8-2.6-1.1-4.5c-0.3-1.9-0.2-3.5,0.2-4.8c-2.2-1.5-4.9-2.4-8.1-2.6   c-3.2-0.2-6.8,0.5-10.8,2c-4.2,1.7-7.6,4.3-10,7.8c-2.5,3.5-4,7.6-4.6,12.1c-0.6,4.6-0.1,9.5,1.7,14.6c0.9,2.6,2.2,5.3,4,8   c1.8,2.7,4.1,5,7,6.9s6.3,3.1,10.3,3.5c3.9,0.4,8.5-0.4,13.7-2.5c1.6-0.7,2.8-1.2,3.6-1.6c0.8-0.4,2-0.9,3.6-1.6l4.4,12.7l-7.4,2.7   c-5.5,2.2-9.9,4.9-13.2,8.1c-3.4,3.2-5.9,6.8-7.6,10.7c-1.7,3.9-2.6,8-2.6,12.2c-0.1,4.2,0.6,8.2,2,12.1c2.4,7.2,6,12.7,10.8,16.4   c4.8,3.7,10.1,5.8,16,6.2c5.9,0.4,11.4-0.4,16.8-2.5c9.4-3.7,16.3-8.6,20.6-14.5c4.4-5.9,6.8-12.4,7.4-19.5   c0.6-7.1-0.2-14-2.2-20.8c-2.3,0.9-4.7,2.1-7.3,3.5c-2.5,1.4-5,3.3-7.5,5.6c-2.5,2.3-4.9,5.5-7.3,9.4l-8.4-3.8   c1.5-6.9,3.4-12.4,5.5-16.4c2.2-4,5.1-7.4,8.7-10c3.6-2.6,8.3-5.1,14.2-7.4c4.6-1.8,8.9-4.1,12.9-6.7c3.9-2.6,7.3-7.1,10.2-13.4   l8.8,3.1c-0.7,4.7-1.6,8.9-2.7,12.6c-1.1,3.7-2.9,7-5.4,10c-2.5,3-6.1,5.7-10.9,8.3c1.9,5.6,3,11.8,3.4,18.7   c0.4,6.9-0.6,13.8-2.9,20.8c-2.3,7-6.4,13.5-12.3,19.7C1311.1,476.1,1302.9,481.2,1292.4,485.4z"/>
	<path class="st0" d="M1447.6,247.8c6.1-2.5,12.7-4.2,19.7-5c7.1-0.8,14.1-0.6,21.1,0.6l0.2-0.1l-4.3-9.2l14.2-5.9l17.2,48.1   l-11.4,4.7c-6-11.3-13.3-18.9-21.9-22.7c-8.6-3.8-18-3.6-28.2,0.7c-7.2,3-13,7.3-17.4,12.8c-4.4,5.6-7.6,12.1-9.5,19.5   c-1.9,7.4-2.6,15.2-1.9,23.5c0.7,8.3,2.5,16.7,5.4,25.2c4.5,12.3,10.3,22.4,17.6,30.3c7.3,7.9,15.4,13.1,24.4,15.6   c9,2.5,18.2,1.8,27.6-1.9c8.5-3.4,16.2-8.9,23.3-16.5c7.1-7.6,12.2-17,15.3-28.2l9.8,4c-3.2,11.5-7.5,21-13,28.5   c-5.5,7.5-11.4,13.6-17.6,18.1s-12.2,7.9-17.9,10.3c-10.3,4.3-20.3,6.3-30.2,6c-9.8-0.3-19-2.5-27.4-6.7c-8.5-4.2-16-10-22.5-17.6   c-6.5-7.6-11.6-16.5-15.2-26.9c-3.3-9.6-5.2-19.6-5.6-30.1c-0.4-10.5,1-20.7,4.2-30.6c3.2-9.9,8.4-18.9,15.6-27.1   C1426.3,259.2,1435.8,252.7,1447.6,247.8z"/>
	<path class="st0" d="M1588.5,189.7c12.2-5,23.6-7,34-6.1c10.4,0.9,19.7,3.9,28,8.9c8.2,5,15.2,11.4,21,19   c5.8,7.6,10.3,15.8,13.5,24.4c3.2,8.5,4.9,17.9,5.4,28.1c0.4,10.2-0.9,20.3-4,30.4c-3.1,10.1-8.3,19.2-15.5,27.6   c-7.2,8.3-17,15-29.2,19.9c-12.6,5.1-24.2,7.3-34.6,6.6c-10.4-0.7-19.7-3.6-27.8-8.6c-8.1-5-15.1-11.4-20.8-19.1   c-5.7-7.7-10.2-15.9-13.2-24.7c-3.5-9.3-5.4-19.2-5.7-29.6c-0.3-10.4,1.2-20.5,4.5-30.4s8.7-18.9,16-27   C1567.1,200.9,1576.6,194.5,1588.5,189.7z M1590.7,202.8c-7.5,3-13.2,7.6-17.1,13.6c-4,6-6.5,12.8-7.6,20.3   c-1.1,7.5-1.2,15.2-0.2,23c1,7.8,2.9,15.1,5.5,22c2.3,6.8,5.6,13.7,9.9,20.6c4.3,6.9,9.4,12.9,15.2,18.2   c5.8,5.2,12.3,8.8,19.4,10.7c7.1,1.9,14.8,1.2,23.1-2.2c7.6-3.1,13.4-7.6,17.4-13.6c4-6,6.6-12.7,7.7-20.1   c1.2-7.4,1.2-15.1,0.2-22.9c-1-7.8-2.8-15.2-5.3-22.1c-3.3-8.9-7.4-17-12.1-24.3c-4.8-7.2-10.1-13.2-16-17.7   c-5.9-4.6-12.2-7.4-18.9-8.6C1605.2,198.6,1598.1,199.6,1590.7,202.8z"/>
	<path class="st0" d="M1837.7,264.4l-97.8-66c-2.9-1.9-5.9-3.9-8.9-6.1c-3.1-2.1-6.1-4.3-9.1-6.5l-0.4,0.2l24.1,73.7   c1.2,3.8,2.3,7.4,3.3,11c0.9,3.6,1.6,6.5,2,8.9c2.4-1.1,5.1-2.2,8.1-3.5c3-1.3,5.4-2.2,7.1-2.9l4.2,13.9l-43.9,16.3l-3.6-11.6   c3.5-1.5,6.2-3.1,7.9-4.9c1.7-1.8,2.7-4.2,2.9-7.2c0.2-3-0.5-6.6-1.9-10.9l-27.2-85c-1.1-3.7-2.1-7.3-3.1-10.8   c-1-3.5-1.9-6.5-2.6-8.9c-2.1,1-4.7,2-7.7,3.2c-3,1.2-5.4,2.2-7.1,3l-4.2-13.9l29.9-11.1l92.4,61.6c4.6,3.1,8.8,6,12.5,8.6   c3.7,2.6,7.1,5.1,10.1,7.4l0.2-0.1l-24.4-76.8c-1.1-3.7-2-7.1-2.9-10.3c-0.9-3.2-1.5-5.7-1.9-7.6c-2.1,1-4.8,2-7.8,3.3   c-3.1,1.2-5.5,2.2-7.2,3l-4.2-13.9l43.7-16.3l3.8,11.5c-3.8,1.6-6.5,3.3-8.2,5.3c-1.7,2-2.5,4.6-2.4,7.8c0.1,3.2,1,7.6,2.7,13.1   l36.5,116.9L1837.7,264.4z"/>
	<path class="st0" d="M1996.3,212.6l-93.8-71.5c-2.8-2.1-5.6-4.2-8.6-6.6c-2.9-2.3-5.8-4.6-8.7-7l-0.4,0.1l19.9,74.9   c1,3.8,1.9,7.5,2.6,11.2c0.7,3.6,1.2,6.6,1.5,9c2.5-0.9,5.2-1.9,8.3-3c3-1.1,5.5-1.9,7.3-2.5l3.4,14.1l-44.8,13.8l-2.9-11.8   c3.6-1.3,6.3-2.8,8.2-4.5c1.8-1.7,2.9-4,3.3-7c0.3-2.9-0.1-6.6-1.3-11l-22.2-86.4c-0.8-3.7-1.7-7.4-2.5-11c-0.8-3.6-1.5-6.6-2.1-9   c-2.2,0.8-4.8,1.8-7.9,2.8c-3.1,1-5.5,1.9-7.3,2.6l-3.4-14.1l30.5-9.4l88.7,66.8c4.4,3.4,8.4,6.5,12,9.3c3.6,2.8,6.8,5.5,9.7,7.9   l0.2-0.1L1966,92.4c-0.8-3.7-1.6-7.2-2.3-10.5c-0.7-3.2-1.2-5.8-1.5-7.7c-2.2,0.8-4.9,1.8-8,2.8c-3.1,1-5.6,1.9-7.4,2.6l-3.4-14.1   l44.6-13.7l3.1,11.7c-3.9,1.4-6.7,3-8.5,4.8c-1.8,1.9-2.7,4.4-2.8,7.7c-0.1,3.2,0.6,7.6,2,13.2l29.7,118.8L1996.3,212.6z"/>
	<path class="st0" d="M2122.2,21.9l7.8,40.6l-11.6,2.5c-1.4-8.3-3.7-14.2-7.1-17.7c-3.4-3.5-7.3-5.6-11.7-6.1   c-4.4-0.5-8.7-0.3-13,0.8l-11.3,2.7c-3.7,1-6.6,2.3-8.6,3.9c-2,1.6-3.3,4.1-3.7,7.2c-0.4,3.2-0.2,7.7,0.8,13.4l5.5,33.3l22-4.6   c1.7-1.9,3-3.8,3.9-5.8c0.9-2,1.4-4.3,1.6-6.8c0.1-2.5-0.1-5.4-0.7-8.7l13.3-2.9l8.5,51.1l-11.8,2.6c-1.1-6.2-2.7-10.5-5.1-12.9   c-2.3-2.3-5.2-3.4-8.6-3.3c-3.4,0.1-7.5,0.8-12.2,2l-8.7,2.4l6.5,40.2c0.7,3.9,1.2,7.5,1.6,10.8c0.3,3.3,0.6,5.9,0.7,7.8l32.8-7.4   c5-1.1,9.5-3.1,13.3-6c3.9-2.9,6.7-6.9,8.5-12.2c1.8-5.3,2-12,0.7-20.1l11.8-2.6l6.3,46.4l-112,24.5l-1.9-12c4-1,6.9-2.4,8.9-4.1   c2-1.7,3.1-4.2,3.4-7.5c0.3-3.3,0-7.7-0.9-13.2l-14-86.8c-0.6-3.6-1.1-7.1-1.5-10.5c-0.4-3.4-0.6-6-0.7-7.9   c-2.4,0.7-5.2,1.4-8.3,2.2c-3.1,0.8-5.6,1.4-7.5,2l-2.5-14.3L2122.2,21.9z"/>
	<path class="st0" d="M2237,3.8c6.6-0.6,13.3-0.3,20.3,1c7,1.3,13.7,3.6,20,6.8l0.2,0l-1.4-10l15.3-1.5l2.4,51.1l-12.3,1.2   c-2.4-12.6-7.2-21.9-14.4-28.1c-7.2-6.1-16.2-8.7-27.2-7.6c-7.7,0.8-14.5,3.2-20.4,7.2c-5.9,4-10.8,9.3-14.8,15.8   c-4,6.5-6.9,13.8-8.7,22c-1.8,8.1-2.5,16.7-2.2,25.6c0.7,13.1,3.4,24.4,8,34.1c4.6,9.7,10.9,17,18.8,22c7.9,5,16.8,7,26.9,6.2   c9.1-0.7,18.1-3.7,27.1-9c9-5.2,16.6-12.7,22.9-22.5l8.2,6.7c-6.4,10.1-13.3,17.9-20.8,23.5c-7.5,5.6-14.9,9.6-22.1,12.1   s-14,4-20.1,4.6c-11.1,1.1-21.3,0.1-30.6-3.1c-9.3-3.1-17.4-7.9-24.3-14.4c-6.9-6.5-12.4-14.3-16.4-23.4s-6.2-19.2-6.7-30.2   c-0.4-10.1,0.7-20.3,3.4-30.4c2.7-10.1,7-19.5,12.9-28c5.9-8.5,13.6-15.7,22.9-21.4C2213.3,8.6,2224.3,5.1,2237,3.8z"/>
	<path class="st0" d="M2459.6,10.2l-4.5,48.4l-12.3-0.8c0.8-8.2,0.6-15-0.8-20.5c-1.4-5.5-4-9.6-7.7-12.5c-3.7-2.9-8.6-4.5-14.8-4.7   l-13.4-0.9l-13.1,108c-0.4,3.9-0.9,7.6-1.5,10.9c-0.6,3.3-1.1,6-1.5,7.8c1.8,0,3.8,0,6.1,0.1c2.3,0.1,4.5,0.2,6.6,0.2   c2.1,0.1,3.8,0.1,5.2,0.2l-1.6,14.4l-59.5-4l1.7-12c3.8,0.1,6.9-0.4,9.3-1.6c2.4-1.2,4.2-3.2,5.6-6.2c1.4-3,2.4-7.3,3.1-12.8   l13.1-106.7l-14.3-0.9c-8.6-0.4-15.6,2-20.8,7.4c-5.2,5.4-8.5,14.2-9.9,26.5l-12.5-0.8l7-48.3L2459.6,10.2z"/>
</g>
</svg>