<?xml version="1.0" standalone="no"?>
<!DOCTYPE svg PUBLIC "-//W3C//DTD SVG 1.1//EN" "http://www.w3.org/Graphics/SVG/1.1/DTD/svg11.dtd">
<svg xmlns="http://www.w3.org/2000/svg" xmlns:xlink="http://www.w3.org/1999/xlink" version="1.1" id="Layer_1" x="0px" y="0px" viewBox="0 0 830 848.9" style="enable-background:new 0 0 830 848.9;" xml:space="preserve" width="830" height="848.9000244140625">
<style type="text/css">
	.st0{fill:#FFFFFF;}
	.st1{fill:#E10098;}
	.st2{fill:none;}
	.st3{enable-background:new    ;}
	.st4{font-family:'ProximaNova-Regular';}
	.st5{font-size:56.2988px;}
	.st6{fill:#FDE5C3;}
	.st7{fill:#B3F8FF;}
	.st8{fill:#E10098;stroke:#E10098;stroke-width:2;stroke-miterlimit:10;}
</style>
<g>
	<g>
		<path class="st0" d="M415.1,843.9c-57.3,0-115.1-4.7-171.7-14c-58.2-9.6-110.8-36.9-151.9-79.1c-41.3-42.3-67.2-95.6-75-154.1    C9,540.7,5.1,483.7,5,427.3c-0.1-58.2,3.7-117,11.4-174.7C24.2,194,50.1,140.7,91.3,98.3C132.5,56,185,28.5,243.3,19    C297,10.2,351.8,5.5,406.2,5c2.9,0,5.8,0,8.7,0C472.3,5,530,9.7,586.5,19c58.2,9.6,110.8,36.9,151.9,79.1    c41.3,42.3,67.2,95.6,75,154.1c7.5,55.9,11.3,112.9,11.5,169.3c0.1,58.2-3.7,117-11.4,174.7c-7.8,58.6-33.7,111.9-74.9,154.3    c-41.2,42.3-93.7,69.8-152,79.3c-53.7,8.8-108.5,13.5-162.9,14C420.8,843.9,418,843.9,415.1,843.9z"/>
		<path class="st1" d="M415.1,10c56.9,0,114.4,4.7,170.7,13.9c57.2,9.4,108.7,36.2,149.1,77.7c40.5,41.6,66,93.9,73.7,151.3    c7.5,55.7,11.3,112.5,11.4,168.7c0.1,58-3.7,116.5-11.4,174S775.5,705.5,735,747.1c-40.4,41.6-92,68.5-149.3,77.9    c-53.5,8.8-108,13.4-162.1,13.9c-2.9,0-5.7,0-8.5,0c-57.1,0-114.6-4.7-170.9-13.9c-57.2-9.4-108.7-36.2-149.1-77.7    c-40.5-41.6-66-93.9-73.7-151.3C14,540.3,10.1,483.5,10,427.3c-0.1-58,3.7-116.5,11.4-174S54.5,143.4,95,101.8    c40.4-41.6,92-68.5,149.2-77.9c53.5-8.8,108-13.4,162.2-13.9C409.2,10,412.2,10,415.1,10 M415.1,0c-2.9,0-5.9,0-8.8,0    c-54.6,0.4-109.7,5.2-163.7,14c-59.4,9.7-112.9,37.7-154.8,80.8C45.8,138,19.4,192.3,11.5,252C3.7,309.9-0.1,368.9,0,427.3    c0.1,56.6,4,113.8,11.5,170c8,59.6,34.4,113.9,76.4,157c41.9,43,95.4,70.9,154.7,80.6c56.9,9.3,114.9,14.1,172.5,14.1    c2.9,0,5.7,0,8.6,0c54.6-0.4,109.7-5.2,163.7-14c59.4-9.7,112.9-37.7,154.8-80.8c42-43.2,68.3-97.5,76.3-157.1    C826.2,539,830.1,480,830,421.6c-0.1-56.6-4-113.8-11.5-170c-8-59.6-34.4-113.9-76.4-157c-41.9-43-95.4-70.9-154.7-80.6    C530.5,4.7,472.6,0,415.1,0L415.1,0z"/>
	</g>
	<path id="SVGID_x5F_1_x5F_" class="st2" d="M728.8,422c0.1,55.3-3.8,106.4-10,152.5c-11,82-74.3,147.1-155.9,160.5   c-42.1,6.9-89.2,11.6-140.4,12c-57.1,0.5-109.3-4.5-155.3-12c-81.5-13.4-144.9-78.3-155.9-160.1c-6-44.8-9.9-94.3-10-147.8   c-0.1-55.3,3.8-106.4,10-152.5c11-82,74.3-147.1,155.9-160.5c42.1-6.9,89.2-11.6,140.4-12c57.1-0.5,109.3,4.5,155.3,12   c81.5,13.4,144.9,78.3,155.9,160.1C724.7,318.9,728.6,368.4,728.8,422z"/>
	<g class="st3">
		<path class="st1" d="M107.8,546l-15.1,16.1l4.7,3.2l12.5-1.5l0.5,4.6l-37.3,4.4l-0.5-4.6l19.3-2.3l-21.2-14.2l-0.7-5.8l19.5,13.5    l17.6-19.2L107.8,546z"/>
	</g>
	<g class="st3">
		<path class="st1" d="M106.7,534.9l-37.4,3.6l-0.4-4.7l37.4-3.6L106.7,534.9z"/>
	</g>
	<g class="st3">
		<path class="st1" d="M103.4,495l-28.3,24l29.9-2.2l0.3,4.7l-37.5,2.7l-0.3-4.8l27.7-23.7L66,497.9l-0.3-4.7l37.5-2.7L103.4,495z"/>
	</g>
	<g class="st3">
		<path class="st1" d="M102.6,481.8l-37.5,1.4l-0.5-12.8c-0.4-11.6,7.5-19.5,18.1-19.9c10.7-0.4,19,6.9,19.4,18.6L102.6,481.8z     M82.9,455.2c-8.1,0.3-14.4,5.7-14.1,14.9l0.3,8.2l29.2-1.1l-0.3-8.2C97.7,460,90.9,454.9,82.9,455.2z"/>
	</g>
	<g class="st3">
		<path class="st1" d="M101.3,415.8l-29.9,22l30,0l0,4.7l-37.6,0.1l0-4.8L93.1,416l-29.3,0l0-4.7l37.6-0.1L101.3,415.8z"/>
	</g>
	<g class="st3">
		<path class="st1" d="M101.5,402.5l-37.5-1.1l0.7-24.6l4.2,0.1l-0.6,19.9l12.1,0.4l0.6-19.5l4.2,0.1l-0.6,19.5l12.9,0.4l0.6-19.9    l4.2,0.1L101.5,402.5z"/>
	</g>
	<g class="st3">
		<path class="st1" d="M97.1,372.4l-3.4-3c2.9-2.3,5.7-6.2,6-11.5c0.4-6.7-3.1-9-5.9-9.2c-9.7-0.6-5.6,21.9-19,21.2    c-6.2-0.4-10.1-6.1-9.6-13.5c0.3-5.7,2.5-10.1,6-13l3.3,3c-3.3,2.6-4.9,6.5-5.1,10.6c-0.3,4.5,2,7.8,5.5,8    c8.4,0.5,4.9-22,18.9-21.2c5.5,0.3,10.8,4.4,10.2,14.5C103.5,364.9,100.8,369.6,97.1,372.4z"/>
	</g>
	<g class="st3">
		<path class="st1" d="M99.1,339.4l-3.3-3.1c3-2.2,5.9-6,6.4-11.3c0.6-6.7-2.8-9.1-5.7-9.4c-9.6-0.8-6.3,21.8-19.6,20.6    c-6.2-0.5-9.9-6.4-9.2-13.8c0.5-5.7,2.8-10,6.4-12.8l3.2,3.1c-3.3,2.5-5.1,6.3-5.4,10.4c-0.4,4.5,1.7,7.9,5.3,8.2    c8.4,0.7,5.5-21.8,19.5-20.6c5.4,0.5,10.7,4.7,9.8,14.8C105.8,332,102.9,336.6,99.1,339.4z"/>
	</g>
	<g class="st3">
		<path class="st1" d="M112.4,266.2c-1.1,1-2.7,2.3-4.4,3.6c2.4,3.1,3.8,6.8,3.2,11.3c-0.9,6.4-5,11.2-11.9,10.2    c-5.8-0.8-8.2-5.1-10-9.7c-3.1,1.3-6.1,2.1-8.8,1.7c-5-0.7-8.1-5.3-7.4-10.5c0.6-4.9,3.7-8.1,8.4-7.5c5.6,0.7,7.4,5.8,9.2,10.9    c2.3-1.2,4.3-2.6,5.9-3.6c2-1.3,3.8-2.5,5.6-3.8c-2.8-2.5-6-4.2-8-5.1l2-3.4c2.8,1.7,6.1,3.7,8.9,6.4c2.6-1.9,5.1-3.9,8-6.3    L112.4,266.2z M87.8,277.7c-1.4-4.2-3-7.9-6.7-8.4c-2.7-0.4-4.4,1.3-4.8,3.9c-0.4,2.8,1.5,5.5,4.7,5.9    C83.1,279.3,85.5,278.7,87.8,277.7z M105.1,272c-2.5,1.8-4.9,3.5-6.3,4.4c-2,1.3-4.2,2.7-6.5,3.9c1.5,3.3,3.5,6,7.3,6.5    c4.6,0.6,7.7-2.6,8.2-6.5C108.1,277.2,106.9,274.4,105.1,272z"/>
	</g>
	<g class="st3">
		<path class="st1" d="M131.2,211.1l-28.3-12.5l23.1,24.2l-0.8,1.8l-33.4-0.9l28.3,12.5l-1.9,4.3l-34.3-15.2l2.7-6.1l30.6,0.8    L96,197.7l2.7-6.1l34.3,15.2L131.2,211.1z"/>
	</g>
	<g class="st3">
		<path class="st1" d="M138.1,199.4l-30.5-21.9l14.4-20l3.4,2.4l-11.6,16.2l9.8,7.1l11.4-15.9l3.4,2.4l-11.4,15.9l10.5,7.6    l11.6-16.2l3.4,2.4L138.1,199.4z"/>
	</g>
	<g class="st3">
		<path class="st1" d="M172.9,158.6l-17.3-4l-5.4,5.2l10.4,10.7l-3.3,3.3l-26.2-26.9l10.8-10.5c4.9-4.8,11.5-5.1,16.3-0.1    c4.7,4.8,4,10.7,0.6,14.6l17.9,3.9L172.9,158.6z M154.8,139.6c-2.9-3-7.2-3-10.4,0.1l-7.1,6.9l10,10.3l7.1-6.9    C157.7,146.9,157.8,142.7,154.8,139.6z"/>
	</g>
	<g class="st3">
		<path class="st1" d="M170.9,135.5c-6.3-9.7-3.5-20.9,5.5-26.8c5.6-3.6,11.2-3.5,16-1.6l-2.1,4c-3.5-1.5-8-1.3-11.6,1.1    c-6.9,4.5-8.6,13.2-3.7,20.7c4.9,7.4,13.6,9.3,20.5,4.8c3.6-2.3,5.6-6.4,5.6-10.2l4.5-0.4c-0.3,5.3-2.3,10.4-7.9,14.1    C188.6,147.1,177.2,145.2,170.9,135.5z"/>
	</g>
	<g class="st3">
		<path class="st1" d="M224.9,126.2l-6-14.7L197.1,97l5.1-2l17.4,11.8l4.3-20.6l5.1-2l-5.5,25.6l6,14.7L224.9,126.2z"/>
	</g>
	<g class="st3">
		<path class="st1" d="M275,110.3c-0.3-1.7,0.9-3.3,2.6-3.5c1.7-0.3,3.3,0.9,3.5,2.6c0.3,1.7-0.9,3.3-2.6,3.5    C276.8,113.1,275.2,112,275,110.3z"/>
	</g>
	<g class="st3">
		<path class="st1" d="M339.6,105.1l-10.9-14l-7.5,0.7l1.4,14.9l-4.7,0.4l-3.5-37.4l15-1.4c6.8-0.6,12.1,3.3,12.8,10.2    c0.6,6.7-3.6,10.9-8.7,11.8l11.5,14.3L339.6,105.1z M337.5,79c-0.4-4.2-3.7-6.8-8.1-6.4l-9.8,0.9l1.3,14.3l9.8-0.9    C335.1,86.4,337.9,83.2,337.5,79z"/>
	</g>
	<g class="st3">
		<path class="st1" d="M352.1,104.2L350,66.7l24.6-1.4l0.2,4.2l-19.9,1.1l0.7,12.1l19.5-1.1l0.2,4.2l-19.5,1.1l0.7,12.9l19.9-1.1    l0.2,4.2L352.1,104.2z"/>
	</g>
	<g class="st3">
		<path class="st1" d="M381.7,97.3l2.7-3.6c2.5,2.7,6.6,5.2,11.9,5.1c6.7-0.1,8.8-3.8,8.7-6.7c-0.2-9.7-22.3-3.9-22.6-17.3    c-0.1-6.2,5.3-10.5,12.7-10.7c5.7-0.1,10.2,1.7,13.4,5l-2.7,3.5c-2.9-3-6.8-4.4-11-4.3c-4.5,0.1-7.7,2.6-7.6,6.1    c0.2,8.4,22.3,3.2,22.6,17.2c0.1,5.5-3.5,11.1-13.6,11.3C389.7,103.1,384.9,100.7,381.7,97.3z"/>
	</g>
	<g class="st3">
		<path class="st1" d="M417.1,102.1l0.2-37.6l4.7,0l-0.2,37.6L417.1,102.1z"/>
	</g>
	<g class="st3">
		<path class="st1" d="M430.5,102.1l1.3-37.5l12.8,0.4c11.6,0.4,19,8.8,18.6,19.4c-0.4,10.7-8.2,18.5-19.9,18.1L430.5,102.1z     M458.4,84.2c0.3-8.1-4.6-14.8-13.9-15.1l-8.2-0.3l-1,29.2l8.2,0.3C452.6,98.6,458.1,92.3,458.4,84.2z"/>
	</g>
	<g class="st3">
		<path class="st1" d="M469.9,103.6l2.7-37.5l24.5,1.8l-0.3,4.2L477,70.7l-0.9,12.1l19.5,1.4l-0.3,4.2l-19.5-1.4l-0.9,12.9l19.9,1.5    l-0.3,4.2L469.9,103.6z"/>
	</g>
	<g class="st3">
		<path class="st1" d="M530,106.8c0.2-1.7,1.8-2.9,3.5-2.7c1.7,0.2,2.9,1.8,2.7,3.5c-0.2,1.7-1.8,2.9-3.5,2.7    C531,110,529.8,108.5,530,106.8z"/>
	</g>
	<g class="st3">
		<path class="st1" d="M571.6,109.8l3.6-2.7c1.6,3.3,4.8,6.9,9.9,8.4c6.4,1.8,9.5-1,10.3-3.8c2.6-9.3-20.2-10.3-16.5-23.1    c1.7-6,8.2-8.5,15.3-6.5c5.5,1.6,9.3,4.6,11.4,8.7l-3.6,2.5c-1.9-3.7-5.3-6.2-9.2-7.3c-4.3-1.2-8.1,0.2-9.1,3.6    c-2.3,8.1,20.4,9.5,16.6,23c-1.5,5.3-6.6,9.6-16.3,6.8C577.5,117.7,573.6,114,571.6,109.8z"/>
	</g>
	<g class="st3">
		<path class="st1" d="M611.3,107.6c5.1-9.8,15.6-13.8,25.5-8.6c9.8,5.1,12.7,16,7.6,25.8c-5.1,9.8-15.7,13.8-25.5,8.6    C609,128.3,606.2,117.4,611.3,107.6z M640.1,122.5c4-7.8,2.2-16-5.2-19.9c-7.5-3.9-15.2-0.6-19.3,7.2c-4,7.7-2.3,16,5.2,19.9    C628.3,133.6,636.1,130.3,640.1,122.5z"/>
	</g>
	<g class="st3">
		<path class="st1" d="M651.1,134.7l14.8-17.6l3.6,3l-14.7,17.5c-4.4,5.3-4.4,11,1,15.4s10.9,3.5,15.4-1.7l14.7-17.5l3.6,3    l-14.7,17.6c-6,7.2-13.8,8.4-21.6,1.9C645.2,149.6,645.2,141.7,651.1,134.7z"/>
	</g>
	<g class="st3">
		<path class="st1" d="M671.1,172.1l28.9-24l3,3.6l-25.7,21.3l11.1,13.4l-3.2,2.7L671.1,172.1z"/>
	</g>
	<g class="st3">
		<path class="st1" d="M710.1,236.1l28.3-12.5l-33.4,0.8l-0.8-1.8l23.1-24.1L699,211l-1.9-4.3l34.4-15.2l2.7,6.1L713,219.8l30.6-0.7    l2.7,6.1L712,240.4L710.1,236.1z"/>
	</g>
	<g class="st3">
		<path class="st1" d="M719.4,275.3l7.5-4.9l-3.6-18.3l-8.8-1.6l-1-5.2l39.8,7.5l1.1,5.7l-33.9,22.1L719.4,275.3z M749,256.6    l-21.4-3.9l3.1,15.6L749,256.6z"/>
	</g>
	<g class="st3">
		<path class="st1" d="M721.3,294.8l33.2-3.7l-1.3-11.8l4.1-0.5l3.2,28.3l-4.1,0.5l-1.3-11.9l-33.2,3.7L721.3,294.8z"/>
	</g>
	<g class="st3">
		<path class="st1" d="M723.7,317.4l37.4-3.1l2.1,24.5l-4.2,0.3l-1.7-19.9l-12.1,1l1.6,19.5l-4.2,0.3l-1.6-19.5l-12.9,1.1l1.7,19.9    l-4.2,0.3L723.7,317.4z"/>
	</g>
	<text transform="matrix(6.383276e-02 0.998 -0.998 6.383276e-02 725.9768 345.0025)" class="st1 st4 st5"> </text>
	<text class="st1 st4 st5"> </text>
	<g>
		<polygon class="st6" points="446.2,218.5 478.3,220.4 483.9,225.9 523.3,285.8 523.3,289.5 418.5,398 410.5,398 305.6,288.2     305.7,282.8 351,220.6 358,218.5   "/>
		<path class="st7" d="M594.9,340.7c0,0-1.2-16.7-19.1-14.8s-13,49.4-13,49.4h35.8c0,0,13.6-3.7,13-20.4    C611.6,354.9,608.5,342.5,594.9,340.7z"/>
		<path class="st7" d="M232.2,342.5c0,0-16.7,1.2-14.8,19.1s49.4,13,49.4,13v-35.8c0,0-3.7-13.6-20.4-13    C246.4,325.8,234,328.9,232.2,342.5z"/>
		<path class="st7" d="M504.3,534.1c0,0-30.3,2.2-26.9,34.8s89.8,23.6,89.8,23.6v-65.1c0,0-6.7-24.7-37-23.6    C530.1,503.8,507.6,509.4,504.3,534.1z"/>
		<path class="st7" d="M322.6,530.7c0,0-2.2-30.3-34.8-26.9s-23.6,89.8-23.6,89.8h65.1c0,0,24.7-6.7,23.6-37    C352.9,556.6,347.3,534.1,322.6,530.7z"/>
		<g>
			<g>
				<path class="st8" d="M351.6,170.1v16.4c0,1.2-1,2.2-2.2,2.2s-2.2-1-2.2-2.2v-16.4c0-1.2,1-2.2,2.2-2.2      C350.6,167.9,351.6,168.9,351.6,170.1z"/>
			</g>
			<g>
				<path class="st8" d="M307.3,219.4c0,0.8-0.4,1.3-0.6,1.6c-0.2,0.2-0.6,0.6-1.3,0.6c-2-0.3-10.5-1.7-21.8-3.6c-0.1,0-0.1,0-0.2,0      c-1.1-0.2-1.8-1.1-1.8-2.2c0-0.1,0-0.2,0-0.4c0.2-1.1,1.1-1.8,2.2-1.8c0.1,0,0.3,0,0.4,0l21.3,3.6      C306.5,217.4,307.3,218.3,307.3,219.4z"/>
			</g>
			<g>
				<path class="st8" d="M322.7,199.1c-0.5,0.5-1.1,0.6-1.5,0.6s-1-0.1-1.6-0.7l-15.7-16.9l0,0c-0.8-0.9-0.8-2.3,0.1-3.1      c0.5-0.5,1.1-0.6,1.5-0.6s1,0.1,1.6,0.7l15.7,16.9l0,0l0,0c0.5,0.6,0.6,1.2,0.6,1.6C323.4,197.9,323.3,198.5,322.7,199.1z"/>
			</g>
			<g>
				<path class="st8" d="M482.8,170.1v16.4c0,1.2-1,2.2-2.2,2.2s-2.2-1-2.2-2.2v-16.4c0-1.2,1-2.2,2.2-2.2      C481.8,167.9,482.8,168.9,482.8,170.1z"/>
			</g>
			<g>
				<path class="st8" d="M548.4,215.4c0.1,0.8-0.2,1.4-0.4,1.6c-0.2,0.3-0.6,0.8-1.4,0.9l-21.3,3.6c-0.1,0-0.3,0-0.4,0      c-1.1,0-2-0.8-2.2-1.8l0,0c-0.1-0.8,0.2-1.4,0.4-1.6c0.2-0.3,0.6-0.8,1.4-0.9l21.3-3.6c0.1,0,0.3,0,0.4,0      C547.3,213.6,548.2,214.4,548.4,215.4z"/>
			</g>
			<g>
				<path class="st8" d="M526.1,182.1L510.4,199c-0.4,0.4-1,0.7-1.6,0.7s-1.1-0.2-1.5-0.6c-0.9-0.8-0.9-2.2-0.1-3.1l15.7-16.9l0,0      c0.3-0.3,0.6-0.5,0.9-0.6c0.3-0.1,0.5-0.1,0.7-0.1c0.4,0,1,0.1,1.5,0.6c0.6,0.5,0.7,1.2,0.7,1.5      C526.7,180.8,526.6,181.5,526.1,182.1z"/>
			</g>
			<g>
				<path class="st8" d="M525.7,283.5l-39.4-58.2c-3.5-5.1-9.2-8.2-15.4-8.2H359.1c-6.2,0-11.9,3.1-15.4,8.2l-39.4,58.2      c-1.6,2.5-1.4,5.8,0.7,7.9l106.1,109.8c0,0,0,0,0.1,0c0.9,0.8,2,1.2,3.2,1.2c0.1,0,0.2,0,0.3,0h0.4h0.4c0.1,0,0.2,0,0.3,0      c1.2,0,2.3-0.4,3.1-1.2l0,0L525,291.4C527,289.3,527.3,285.9,525.7,283.5z M388.1,221.6h24.1c0.3,0,0.6,0.2,0.6,0.6v60.1      c0,0.3-0.2,0.6-0.6,0.6h-49.9c-0.4,0-0.7-0.4-0.5-0.8l3.3-7.6l21.1-49.2l1.4-3.3C387.7,221.7,387.9,221.6,388.1,221.6z       M412.8,287.8v96.8c0,0.6-0.8,0.8-1,0.3l-10.3-19.6L365.1,296l-4.2-8c-0.2-0.4,0.1-0.8,0.5-0.8h50.8      C412.5,287.2,412.8,287.4,412.8,287.8z M316.4,273.4l30.9-45.6c2.6-3.9,7-6.2,11.7-6.2h23c0.4,0,0.7,0.4,0.5,0.8l-3.3,7.6      l-21.1,49.2l-1.4,3.3c-0.1,0.2-0.3,0.3-0.5,0.3H311c-0.4,0-0.7-0.5-0.5-0.9L316.4,273.4z M384.1,366.9l-67.3-69.6l-8.9-9.2      c-0.3-0.4-0.1-0.9,0.4-0.9h46.9c0.2,0,0.4,0.1,0.5,0.3l1.5,2.9l36.5,69.6l17.6,33.6c0.3,0.6-0.4,1.1-0.9,0.6L384.1,366.9z       M470.8,221.6c4.7,0,9.1,2.3,11.8,6.2l30.9,45.6l5.8,8.5c0.2,0.4,0,0.9-0.5,0.9h-45.2c-0.2,0-0.4-0.1-0.5-0.3l-1.4-3.3      L450.6,230l-3.3-7.6c-0.2-0.4,0.1-0.8,0.5-0.8H470.8z M417.7,221.6h24.1c0.2,0,0.4,0.1,0.5,0.3l1.4,3.3l21.1,49.2l3.3,7.6      c0.2,0.4-0.1,0.8-0.5,0.8h-49.9c-0.3,0-0.6-0.2-0.6-0.6v-60.1C417.2,221.8,417.4,221.6,417.7,221.6z M417.7,287.2h50.8      c0.4,0,0.7,0.4,0.5,0.8l-4.2,8l-36.3,69.3l-10.3,19.6c-0.3,0.5-1,0.3-1-0.3v-96.8C417.2,287.4,417.4,287.2,417.7,287.2z       M513.1,297.4L445.8,367l-26.4,27.3c-0.4,0.5-1.2-0.1-0.9-0.6l17.6-33.6l36.5-69.6l1.5-2.9c0.1-0.2,0.3-0.3,0.5-0.3h46.9      c0.5,0,0.7,0.6,0.4,0.9L513.1,297.4z"/>
			</g>
			<g>
				<path class="st8" d="M601,340.9l-3.1-0.9l-0.9-3.1c-1.1-3.8-3.4-7.1-6.6-9.5c-3.2-2.4-7-3.6-10.9-3.6c-0.2,0-0.4,0-0.7,0      c-10.1,0.5-18.1,8.8-18.2,19l-0.1,31.3c0,1.8,1.5,3.3,3.3,3.3l0,0l31.3-0.1c10.2-0.1,18.5-8,19-18.2      C614.4,350.8,609,343.3,601,340.9z M609.7,359.1L609.7,359.1v0.1c-0.5,7.7-6.9,13.7-14.5,13.7H595l-24.1,0.1h-6.1v-6.1l0.1-24.1      c0-7.7,6-14.1,13.7-14.6h0.1l0,0c0.2,0,0.4,0,0.5,0h0.1c7.4,0,13.6,5.8,14,13.3c0.1,1.7,1.4,3,3.1,3.1      C604,344.9,610,351.5,609.7,359.1z"/>
			</g>
			<g>
				<path class="st8" d="M269.4,342.8c-0.1-10.1-8-18.5-18.2-19c-0.2,0-0.4,0-0.6,0c-4,0-7.8,1.3-10.9,3.6c-3.2,2.4-5.5,5.6-6.6,9.5      L232,340l-3.1,0.9c-8,2.4-13.4,9.9-13.1,18.2c0.5,10.1,8.8,18.1,19,18.2l31.3,0.1l0,0c0.9,0,1.7-0.3,2.3-1c0.6-0.6,1-1.4,1-2.3      l0,0L269.4,342.8z M259.1,373l-24.1-0.1h-0.1c-7.7,0-14.1-6-14.5-13.7v-0.1V359c-0.3-7.6,5.6-14.1,13.2-14.5l0,0      c1.7-0.1,3-1.4,3.1-3.1c0.4-7.4,6.5-13.3,14-13.3h0.1c0.1,0,0.3,0,0.5,0l0,0l0,0c7.7,0.5,13.7,6.9,13.7,14.6l0.1,24.1v6.1      L259.1,373z"/>
			</g>
			<g>
				<path class="st8" d="M348.8,542.1c-4.7-5.9-11.4-10-18.9-11.4l-4-0.8l-0.8-4c-2.9-14.9-16-25.8-31.2-25.8c-0.4,0-0.8,0-1.2,0      c-17.6,0.9-31.5,15.3-31.5,33l-0.2,57.5c0,2.3,1.9,4.2,4.2,4.2h0.1l57.4-0.3c17.6-0.1,32.1-13.9,33-31.5      C355.9,555.5,353.5,548.1,348.8,542.1z M351.2,563L351.2,563c-0.8,15.3-13.4,27.1-28.6,27.1l0,0l-51.2,0.2h-6v-6.1l0.2-51.2      c0-15.2,11.9-27.8,27.1-28.6h0.1h0.1c0.3,0,0.6,0,0.9,0h0.1c14.6,0,26.7,11.4,27.4,26c0.1,2.1,1.8,3.8,3.9,3.9      C340.2,535.3,351.8,548.1,351.2,563z"/>
			</g>
			<g>
				<path class="st8" d="M568.7,533.2c-0.1-17.6-13.9-32.1-31.5-33c-0.4,0-0.9,0-1.3,0c-15.2,0-28.2,10.8-31.1,25.7l-0.8,4l-4,0.8      c-7.5,1.4-14.2,5.5-18.9,11.4c-4.7,5.9-7.1,13.4-6.9,20.9c0.9,17.6,15.3,31.5,33,31.5l57.4,0.3l0,0c2.3,0,4.2-1.9,4.2-4.2l0,0      L568.7,533.2z M558.5,590.4l-51.2-0.2l0,0c-15.2,0-27.7-11.9-28.6-27.1l0,0l0,0c-0.6-14.9,11.1-27.7,26-28.5      c2.1-0.1,3.8-1.8,3.9-3.9c0.7-14.6,12.7-26,27.3-26c0.4,0,0.8,0,1.2,0l0,0l0,0c15.2,0.8,27.1,13.4,27.1,28.6l0.2,51.2v6.1      L558.5,590.4z"/>
			</g>
			<g>
				<path class="st8" d="M646.9,593.7c-6.2,16.8-15.6,31.9-27.9,45c-12.8,13.7-28,24.3-45.2,31.6c-16.6,7-34.1,10.6-52.2,10.6      c-32.1,0-62.8-11.5-87.1-32.4c0.9-1.1,1.8-2.3,2.7-3.5c23.5,20.4,53.4,31.5,84.7,31.5c15.4,0,30.5-2.7,44.9-8.1      c67-24.8,101.3-99.4,76.5-166.4c-18.7-50.6-67.5-84.6-121.5-84.6c-15.3,0-30.4,2.7-44.9,8.1c-32.4,12-58.3,35.9-72.7,67.4      c-14.1,30.7-15.7,64.9-4.6,96.7c-0.8,1.8-1.8,3.6-2.7,5.4c-2.2-5.8-4-11.8-5.4-17.9c-2.2-9.7-3.3-19.7-3.3-29.7      c0-18,3.5-35.5,10.5-51.9c6.7-15.9,16.3-30.2,28.6-42.4c12.3-12.3,26.5-21.9,42.4-28.6c16.4-7,33.9-10.5,51.9-10.5h0.1      c16.9,0,33.4,3.1,49.1,9.4c15.7,6.2,29.9,15.2,42.2,26.8c13.1,12.3,23.5,26.9,30.7,43.2c7,15.8,10.8,32.6,11.4,49.9      C655.6,560.5,652.8,577.5,646.9,593.7z"/>
			</g>
			<g>
				<path class="st8" d="M308.3,414.1c32.1,0,62.8,11.4,87,32.3c-0.9,1.1-1.8,2.3-2.7,3.5c-23.4-20.3-53.1-31.4-84.2-31.4h-0.1      c-33.5,0-65.2,12.8-89.4,36c-51.3,49.3-52.9,131.1-3.6,182.4c24.6,25.5,57.6,39.6,93,39.6c33.5,0,65.2-12.8,89.4-36      c36.4-34.9,49.1-87.7,32.6-135.2c0.9-1.8,1.8-3.6,2.7-5.4c2.2,5.8,4.1,11.8,5.4,17.9c2.2,9.7,3.4,19.7,3.3,29.7      c0,18-3.5,35.5-10.5,51.9c-6.7,15.9-16.4,30.2-28.6,42.4c-12.3,12.3-26.5,21.9-42.4,28.6c-16.4,7-33.9,10.5-51.9,10.5l0,0      c-16.9,0-33.4-3.1-49.1-9.3s-29.9-15.2-42.2-26.7c-13.1-12.3-23.5-26.8-30.7-43.2c-7-15.8-10.8-32.5-11.4-49.9      c-0.6-17.3,2.2-34.3,8.1-50.5c6.2-16.8,15.5-31.9,27.9-45.1c12.8-13.7,28-24.3,45.2-31.6C272.7,417.7,290.2,414.1,308.3,414.1"/>
			</g>
		</g>
	</g>
</g>
</svg>