<?xml version="1.0" standalone="no"?>
<!DOCTYPE svg PUBLIC "-//W3C//DTD SVG 1.1//EN" "http://www.w3.org/Graphics/SVG/1.1/DTD/svg11.dtd">
<svg xmlns="http://www.w3.org/2000/svg" xmlns:xlink="http://www.w3.org/1999/xlink" version="1.1" id="Layer_1" x="0px" y="0px" viewBox="0 0 566 566" style="enable-background:new 0 0 566 566;" xml:space="preserve" width="566" height="566">
<style type="text/css">
	.st0{fill:#FFFFEC;}
	.st1{fill:#E10098;}
</style>
<circle class="st0" cx="283" cy="283" r="283"/>
<path class="st1" d="M283,531.5c-66.4,0-128.8-25.8-175.7-72.8S34.5,349.4,34.5,283s25.8-128.8,72.8-175.7S216.6,34.5,283,34.5  s128.8,25.8,175.7,72.8s72.8,109.3,72.8,175.7s-25.8,128.8-72.8,175.7S349.4,531.5,283,531.5z M283,49.5  C154.2,49.5,49.5,154.2,49.5,283S154.2,516.5,283,516.5S516.5,411.8,516.5,283S411.8,49.5,283,49.5z"/>
<path class="st1" d="M391.3,411.7c-15.5,0-30.1-6-41.1-17l-13.6-13.6L323,394.7c-11,11-25.6,17-41.1,17c-15.5,0-30.1-6-41.1-17  c-0.4-0.4-0.8-0.8-1.2-1.2c-10.1-10.7-15.6-24.8-15.3-39.7c0-2.6,0.3-5.2,0.6-7.7l-72-73l-19.4-19.4c-22.7-22.7-22.7-59.6,0-82.2  c11-11,25.6-17,41.1-17c15.5,0,30.1,6,41.1,17l13.6,13.6l13.6-13.6c11-11,25.6-17,41.1-17c15.5,0,30.1,6,41.1,17  c0.4,0.4,0.8,0.8,1.2,1.2c10.1,10.7,15.6,24.8,15.3,39.7c-0.1,3.4-0.4,6.7-1.1,10L413,293l19.5,19.5c22.7,22.7,22.7,59.6,0,82.2  C421.5,405.6,406.9,411.7,391.3,411.7z M336.6,362.9c3.4,0,6.7,1.3,9.1,3.8l16.3,16.3c16.2,16.2,42.6,16.2,58.7,0  c7.8-7.8,12.2-18.3,12.2-29.4c0-11.1-4.3-21.5-12.2-29.4l-19.4-19.4l-66.9-65.3c-2.5,4.4-5.5,8.5-9.1,12.2L252.6,326  c-15.4,15.7-15.8,40.4-1,56.1c0.3,0.3,0.6,0.6,0.8,0.9c16.2,16.2,42.6,16.2,58.7,0l16.3-16.3C330,364.2,333.2,362.9,336.6,362.9z   M174.7,170.9c-10.6,0-21.3,4-29.4,12.1c-16.2,16.2-16.2,42.6,0,58.7l19.5,19.5l66,66.9c2.6-5,6-9.7,10-13.9l72.6-74.3  c15.4-15.7,15.8-40.4,1-56.1c-0.3-0.3-0.6-0.6-0.8-0.9c-16.2-16.2-42.6-16.2-58.7,0l-16.3,16.3c-2.4,2.4-5.7,3.8-9.1,3.8  c-3.4,0-6.7-1.3-9.1-3.8l-16.3-16.3C196,175,185.3,170.9,174.7,170.9z"/>
</svg>