<?xml version="1.0" standalone="no"?>
<!DOCTYPE svg PUBLIC "-//W3C//DTD SVG 1.1//EN" "http://www.w3.org/Graphics/SVG/1.1/DTD/svg11.dtd">
<svg xmlns="http://www.w3.org/2000/svg" xmlns:xlink="http://www.w3.org/1999/xlink" version="1.1" id="Layer_1" x="0px" y="0px" viewBox="0 0 1425 1425" style="enable-background:new 0 0 1425 1425;" xml:space="preserve" width="1425" height="1425">
<style type="text/css">
	.st0{fill:#FFFFFF;}
	.st1{fill:#E10098;}
	.st2{fill:#B3F8FF;}
	.st3{fill:#E1F9FF;}
	.st4{fill:#DEFFEA;}
	.st5{fill:#FFDFB0;}
</style>
<circle class="st0" cx="712.5" cy="712.5" r="712.5"/>
<g>
	<path class="st1" d="M319.5,561.3l-181.7,77.9L293.3,675l-5.6,24.3l-195-44.9l5.7-24.9l178.2-77.2l-152.3-35.1l5.6-24.3l195,44.9   L319.5,561.3z"/>
	<path class="st1" d="M381,303.8c-27.9-52.1-13.7-110.1,38.6-138.1c52.1-27.9,108.5-7.8,136.4,44.3c27.9,52.1,13.5,110.2-38.6,138.1   C465,376.2,408.9,355.9,381,303.8z M533.3,222.2c-22.1-41.2-63.8-58.1-103.2-36.9c-39.7,21.3-48.5,65.1-26.4,106.4   c22,41,63.5,58.2,103.2,36.9C546.3,307.5,555.2,263.2,533.3,222.2z"/>
	<path class="st1" d="M770,293.2l6.3-19.7l155.2-115.3l-107.1-34.4l6.8-21.1l137.4,44.1l-6.3,19.7L807.1,281.8l109.1,35l-6.8,21.1   L770,293.2z"/>
	<path class="st1" d="M1131.8,394.9c53-26.1,110.5-10,136.8,43.3c26.1,53,4.1,108.7-48.9,134.8c-53,26.1-110.6,9.7-136.8-43.3   C1056.7,476.5,1078.8,421.1,1131.8,394.9z M1208.3,549.9c42-20.7,60.2-61.8,40.4-101.9c-19.9-40.4-63.5-50.6-105.4-29.9   c-41.7,20.6-60.3,61.5-40.4,101.9C1122.6,560,1166.6,570.5,1208.3,549.9z"/>
	<path class="st1" d="M1123.7,797.8l189.2,65.1l-8.1,23.5l-168.2-57.9l-30.2,87.9l-21-7.2L1123.7,797.8z"/>
	<path class="st1" d="M846.9,1112.7l36.4,31l88.1-46.5l-5.1-47.5l25.2-13.3l22.3,214.5l-27.3,14.4L821.7,1126L846.9,1112.7z    M987.9,1235.3l-12.6-115.1l-75.1,39.6L987.9,1235.3z"/>
	<path class="st1" d="M520.4,1087.1l58.1,189l52.2-150.8l23.5,8.1l-65.4,189.1l-24.1-8.3L507,1128.7l-51.1,147.7l-23.5-8.1   l65.4-189.1L520.4,1087.1z"/>
	<path class="st1" d="M355.8,953.8c-7.6,4.8-18,2.4-22.7-5.3c-4.8-7.6-2.4-18,5.3-22.7c7.6-4.8,18-2.4,22.7,5.3   C365.8,938.7,363.4,949,355.8,953.8z"/>
</g>
<g>
	<polygon class="st2" points="489.7,570.2 503.7,561.2 529.7,556.2 547.7,561.2 540.7,575.2 524.7,587.2 502.7,592.2 482.7,589.2    462.7,575.2 449.7,546.2 456.7,518.2 465.7,525.2 480.7,542.2  "/>
	<polygon class="st2" points="458.1,645 471.2,634.7 496.6,627.3 515,630.6 509.4,645.2 494.5,658.6 473.1,665.7 452.9,664.5    431.7,652.5 416.1,624.8 420.4,596.3 430,602.4 446.5,617.9  "/>
	<polygon class="st2" points="438.4,722.1 449.2,709.5 472.7,697.3 491.3,696.9 488.6,712.3 476.8,728.4 457.1,739.5 437.1,742.4    413.9,734.7 393.2,710.6 391.8,681.8 402.5,685.9 421.7,697.9  "/>
	<path class="st3" d="M515,722.5c12.9-126.8,121.7-252.3,298.7-219.3l-150,220l-48.7-26.5l-51.3,0.8L515,722.5z"/>
	<path class="st4" d="M522.7,811.2c0,0,23,111,132,154c-20.4-18.5-42.1-40.1-64-65C563.3,869.1,550.7,831.2,522.7,811.2z"/>
	<path class="st5" d="M863.7,435.2l-200,288c0,0-55.9-50.5-129.9-14.2l-109.1,71.2c0,0,65-17.8,117.5,52.1   c0,0,81.5,138.9,168.5,152.9c0,0,151,47,263-118c0,0,26-51,31-96l2.4-7.1l10.6-14.9l5-31l-6-27l-3.4-12.1l14.4-16.9l6-28l-3-26   l-11-19v-7l9-20l3.7-24l-5.7-32l-8-12l-100,80l-5-17.7l-12-20.3l-13-14l6-23l-6-33l-14.9-20.7L863.7,435.2z"/>
	<g>
		<g>
			<path class="st1" d="M1021.1,584.5c20.9-28,20.9-66.8-1.1-93.5c-1.1-1.3-3.2-1.5-4.5-0.4l0,0l-94.4,77.7     c-3.4-18.8-13.9-35.7-29.3-46.8c12.6-32.7,1.9-70-26.7-89.7c-1.5-1.1-3.4-0.6-4.5,0.9l-45.9,66.6c-4.5-1.1-8.8-1.9-13.2-2.6     c-136-23.1-265.2,68.3-288.7,204.3c-1.1,6.6-1.9,13.5-2.6,20.1l-74.5,47.4c0.6-7.7,1.3-15.4,2.3-23.1c0.4,0,0.9,0,1.5,0     c25.6,0.2,48-17.5,53.6-42.5l0.2-1.3c0.2-0.9,0.4-1.7,0.4-2.6c0.2-0.9,0-1.7-0.6-2.3c-0.4-0.6-1.3-1.1-2.1-1.3     c-17.3-2.8-34.8,2.8-47.4,14.9c2.8-14.3,6.4-28.4,10.5-42.5c3.2,0.6,6.4,0.9,9.4,0.9c23.7-0.2,44.8-14.9,53-37.4     c0.4-0.9,0.4-1.7,0-2.3c-0.4-0.9-1.1-1.3-1.7-1.7c-17.7-6.4-37.4-3.4-52.3,7.9c3.8-9.4,8.5-19,13-28.2c2.3-4.7,4.7-9.8,7-14.7     l0.6-0.2c26.5,8.5,55.1-3.8,66.8-28.8c0.9-1.5,0-3.4-1.5-4.3c-19.2-9.4-42.1-6.8-58.7,6.4c-0.4-20.9-12.8-39.7-31.6-48.7     c-1.5-0.9-3.4-0.2-4.3,1.5l0,0c-12.6,26.3-3,57.7,22.2,72.2c-2.1,4.7-4.5,9.4-6.6,13.9c-4.7,9.6-9.6,19.6-13.7,29.5     c-4.3-18.4-17.5-33.5-35.2-39.7c-0.9-0.2-1.7-0.2-2.3,0c-0.9,0.4-1.3,1.1-1.7,1.7c-10.2,28.2,3.6,59.1,31.4,70.5     c-4.7,16.2-8.8,32.9-11.7,49.3c-6.8-19-23.5-32.9-43.6-35.9c-0.9-0.2-1.7,0-2.3,0.6c-0.6,0.4-1.1,1.3-1.3,2.1     c-4.5,28.4,13.2,55.3,41,62.6h0.2l1.3,0.2c-1.1,9.2-2.1,18.4-2.8,27.8l-9.4,6c-1.5,0.9-1.9,3-1.1,4.5c0.9,1.3,2.3,1.7,3.8,1.3     c1.9-0.6,4.1-1.1,6-1.5c-0.4,8.5-0.6,17.1-0.6,25.6h6.4c0-8.8,0.2-17.7,0.6-26.7c10-1.3,20.1-1.3,29.9,0.4     c19.9,3.4,38.2,12.4,53.2,25.8c4.3,15.8,10,31,17.3,45.5c0.6,1.3,1.3,2.3,1.9,3.6l0.6,1.5c5.3,10.2,11.3,20.3,18.2,29.7     c8.5,12,18.2,23.1,28.4,33.3l0.4,0.4c1.9,1.7,3.8,3.6,5.8,5.3l0.6,0.6c2.1,1.9,4.1,3.6,6.2,5.6l0.2,0.2c4.3,3.6,8.8,7,13.2,10.5     l1.9,1.5l4.7,3.2l2.6,1.7l4.3,2.8l2.8,1.7c1.3,0.9,2.8,1.7,4.3,2.6c0.9,0.6,1.9,1.1,2.8,1.7c2.1,1.3,4.5,2.6,6.6,3.6l3.4,1.7     c1.3,0.6,2.6,1.3,3.8,1.9l3.8,1.9l3.6,1.7l3.8,1.7l3.6,1.5l3.8,1.5l4.3,1.7c1.1,0.4,2.3,0.9,3.4,1.3c2.3,0.9,4.9,1.7,7.3,2.6     l3.2,1.1c1.7,0.4,3.2,1.1,4.7,1.5l1.5,0.4l2.3,0.9l3.2,0.9l1.7,0.4l2.6,0.6c0.9,0.2,1.7,0.4,2.8,0.6l3,0.6l2.6,0.6l1.3,0.2     c2.1,0.4,4.5,0.9,6.6,1.3h0.2l1.7,0.2c3,0.4,6,0.9,8.8,1.3c10.7,1.5,21.4,2.1,32,2.1c1.1,0,2.1,0,3.4,0h2.1h1.1h1.7l6.4-0.4     c34.8-2.1,69-11.5,99.9-28l1.7-0.9c1.9-1.1,3.6-1.9,5.6-3l4.3-2.3l2.8-1.7c2.1-1.3,4.1-2.6,6.2-3.8l1.9-1.3     c2.1-1.5,4.5-3,6.6-4.5c0.2-0.2,0.4-0.2,0.4-0.4c0.6-0.4,1.1-0.9,1.7-1.3l2.1-1.7l2.8-1.9l1.7-1.3l3.2-2.3l0.9-0.6     c38.4-30.7,66.8-72.2,81.8-119.2c0-0.2,0-0.4,0.2-0.4l1.5-4.7l0.2-1.1c0-0.2,0-0.4,0.2-0.4c0.4-1.3,0.6-2.6,1.1-3.8     c0.2-0.6,0.4-1.3,0.4-2.1c0.2-1.1,0.6-2.3,0.9-3.4c0.2-1.3,0.4-1.9,0.6-2.8c0.2-0.9,0.4-1.9,0.6-2.8c0.2-0.9,0.2-1.3,0.4-1.9     l0.2-1.7v-0.2c0.2-0.6,0.2-1.3,0.4-1.9c0.4-1.9,0.9-3.8,1.1-6v-0.2c0.4-2.3,0.9-4.9,1.1-7.3v-0.2c0-0.9,0.2-1.5,0.2-2.1     c0-0.6,0.2-2.1,0.4-3.2c0-0.9,0.2-1.9,0.2-2.8c20.9-25.2,23.9-59.6,8.1-86.7C1041.6,654.7,1043.7,613.1,1021.1,584.5z      M457.8,558.4c-4.1-11.3-3.6-23.5,0.9-34.6c17.3,9.8,26.9,29,24.6,48.9c-0.2,1.7,1.1,3.4,2.8,3.6c1.1,0.2,2.1-0.2,2.8-1.1     c13.9-14.7,35.4-19.6,54.2-12c-11.7,20.9-37.2,30.3-59.6,21.8c-0.4-0.2-0.6-0.2-1.1-0.2s-0.9,0-1.3,0.2     C469.9,579.6,461.8,569.9,457.8,558.4z M424.5,635.5c-5.1-10.7-6-23.1-2.8-34.4c18.4,8.1,29.9,26.5,29.3,46.5     c0,1.7,1.3,3.2,3,3.4c1.1,0,2.1-0.4,2.8-1.3c12.4-16,33.1-22.8,52.5-17.3c-9.6,22-33.5,34-56.8,28.6l-0.2-0.2l-0.6-0.2     C439.6,656.2,429.8,647.2,424.5,635.5z M431.5,738.4c-23.3-6-38.6-28-36.5-51.9c19.6,4.5,34.8,20.5,37.6,40.6     c0.2,1.7,1.9,3,3.6,2.8c1.1-0.2,1.9-0.9,2.3-1.7c9.2-17.9,28.2-28.4,48-26.5C481,726.5,456.9,742.7,431.5,738.4z M864.1,438.8     c26.1,19.9,34.2,57,18.4,87.5c-0.9,1.5-0.2,3.4,1.3,4.3c1.5,0.9,3.2,0.4,4.3-0.9l1.5-2.1c14.3,11.1,23.7,27.3,25.8,45.3     L747.7,711.1c-39.7,28.6-69.8,18.2-78.8,13.7l-1.1-0.9L864.1,438.8z M519.3,701.9c22.8-132.4,148.6-221.4,281.2-199     c3.4,0.6,7,1.3,10.5,2.1L663.2,719.6c-38.6-32.9-94.4-36.3-136.9-8.8l-9,5.8C517.8,711.7,518.4,706.8,519.3,701.9z M647.2,959.2     l-3.4-1.7c-2.1-1.1-4.3-2.3-6.4-3.6l-3-1.7c-1.3-0.9-2.6-1.5-3.8-2.3c-1.3-0.9-1.9-1.3-3-1.9c-1.3-0.9-2.6-1.7-3.8-2.6l-2.6-1.7     c-1.5-1.1-3-2.1-4.3-3.2l-2.1-1.5c-4.3-3.2-8.5-6.6-12.8-10.2l-0.4-0.2c-1.9-1.7-3.8-3.4-5.8-5.1l-0.9-0.9     c-1.7-1.7-3.6-3.4-5.3-5.1l-0.6-0.6c-10-9.8-19.4-20.7-27.5-32.2l-0.2-0.2c-6.6-9.2-12.6-18.8-17.7-28.8     c-0.2-0.4-0.4-1.1-0.6-1.5c-6.2-12-11.3-24.3-15.4-36.9c7,7.7,13.5,16,19,24.8c26.9,42.3,59.1,87.1,101.4,117.7L647.2,959.2z      M1002.5,766.2c-0.4,0.4-0.6,1.1-0.6,1.7c-0.2,2.6-0.6,5.1-0.9,7.7c0,0.4,0,0.6-0.2,1.1c-0.4,2.6-0.6,5.1-1.1,7.5v0.2v0.2     c-0.4,2.6-0.9,5.1-1.5,7.9c-0.2,0.6-0.2,1.3-0.4,2.1c-0.4,2.3-1.1,4.7-1.7,7c0,0.2-0.2,0.6-0.2,0.9c-0.6,2.6-1.3,5.3-2.1,7.9     c-0.2,0.6-0.2,1.1-0.4,1.7c-0.6,2.3-1.3,4.5-2.1,6.8c0,0.4-0.2,0.6-0.4,1.1c-0.9,2.6-1.7,5.1-2.6,7.7l-0.4,1.3     c-0.9,2.3-1.7,4.5-2.6,6.8c-0.2,0.4-0.2,0.9-0.4,1.1c-1.1,2.6-2.1,4.9-3.2,7.5l-0.4,1.1c-1.1,2.1-2.1,4.5-3.2,6.6     c-0.2,0.4-0.4,0.9-0.6,1.3c-1.3,2.3-2.6,4.9-3.8,7.3l-0.4,0.9c-1.3,2.1-2.3,4.3-3.6,6.4l-0.6,1.1c-1.5,2.3-2.8,4.7-4.3,7     l-0.4,0.6c-1.5,2.1-3,4.3-4.3,6.4l-0.6,0.9c-1.7,2.3-3.2,4.5-4.9,6.8l-0.2,0.2c-1.7,2.3-3.4,4.5-5.3,6.6l-0.2,0.2     c-1.9,2.3-3.8,4.5-5.8,6.8c-1.9,2.1-4.1,4.5-6,6.6c-7,7.5-14.5,14.3-22.2,20.7h-0.2c-1.5,1.1-2.8,2.3-4.3,3.4     c-3.2,2.3-6.4,4.7-9.6,7c-3.2,2.3-6.6,4.5-9.8,6.6c-1.5,0.9-2.8,1.9-4.3,2.8l-0.4,0.4c-25,15.2-52.5,25.6-81.4,31.2     c-3.4,0.6-6.8,1.3-10.2,1.7h-0.6c-3.2,0.4-6.6,0.9-9.8,1.3h-1.1c-3.2,0.2-6.4,0.4-9.8,0.6h-1.1c-3.4,0.2-6.6,0.2-10,0.2l0,0     c-3.2,0-6.4,0-9.8-0.2h-1.5c-3.2-0.2-6.2-0.4-9.4-0.6l-1.9-0.2c-3.2-0.2-6.2-0.6-9.4-1.1l-1.5-0.2c-3.2-0.4-6.4-0.9-9.8-1.5     c-2.6-0.4-5.1-0.9-7.7-1.5c-0.9-0.2-1.7-0.2-2.3-0.4l-0.6-0.2l-4.7-1.1l-1.7-0.4l-2.1-0.4l-4.7-1.3l-1.9-0.4     c-62.4-25.4-106.1-84.3-140.9-139c-39.3-61.1-89-65.8-114.7-63.2l92.5-58.7c41.4-26.9,95.7-22.4,132.2,10.7l3.4,3     c0.2,0.2,0.4,0.4,0.6,0.4c9.6,4.5,20.3,6.8,31,6.4c18.2-0.4,36.5-7.3,54.9-20.7L1017,497.6c19.6,26.3,17.1,64.1-6.4,89.3     c-1.3,1.3-1.1,3.4,0.2,4.5c1.1,1.1,3,1.1,4.3,0.2l1.9-1.7c20.1,26.9,17.1,65.1-7.3,90.3c-1.1,1.1-1.3,2.8-0.4,4.1     C1025.3,709.4,1022.6,742.3,1002.5,766.2z"/>
			<path class="st1" d="M573.8,738.3c-5.4,3.8-6.6,11.3-2.8,16.6c2.2,3.1,5.9,5,9.7,5c6.6,0,11.9-5.3,11.9-11.9     c0-2.5-0.7-4.9-2.2-6.9C586.6,735.8,579.3,734.6,573.8,738.3z"/>
		</g>
	</g>
</g>
</svg>