<?xml version="1.0" standalone="no"?>
<!DOCTYPE svg PUBLIC "-//W3C//DTD SVG 1.1//EN" "http://www.w3.org/Graphics/SVG/1.1/DTD/svg11.dtd">
<svg xmlns="http://www.w3.org/2000/svg" xmlns:xlink="http://www.w3.org/1999/xlink" version="1.1" id="Layer_1" x="0px" y="0px" viewBox="0 0 566 566" style="enable-background:new 0 0 566 566;" xml:space="preserve" width="566" height="566">
<style type="text/css">
	.st0{fill:#FFFFEC;}
	.st1{fill:#E10098;}
</style>
<circle class="st0" cx="283" cy="283" r="283"/>
<path class="st1" d="M283,531.5c-66.4,0-128.8-25.8-175.7-72.8S34.5,349.4,34.5,283s25.8-128.8,72.8-175.7S216.6,34.5,283,34.5  s128.8,25.8,175.7,72.8s72.8,109.3,72.8,175.7s-25.8,128.8-72.8,175.7S349.4,531.5,283,531.5z M283,49.5  C154.2,49.5,49.5,154.2,49.5,283S154.2,516.5,283,516.5S516.5,411.8,516.5,283S411.8,49.5,283,49.5z"/>
<g>
	<g>
		<path class="st1" d="M282.7,354.2l-94.9-94.9c-10.9-10.9-16.9-25.3-16.9-40.7c0-15.4,6-29.8,16.9-40.7s25.3-16.9,40.7-16.9    c15.4,0,29.8,6,40.7,16.9l13.5,13.5l13.5-13.5c22.5-22.4,59-22.4,81.4,0c10.9,10.9,16.9,25.3,16.9,40.7c0,15.4-6,29.8-16.9,40.7    L282.7,354.2z M228.5,177.5c-11,0-21.3,4.3-29.1,12c-7.8,7.8-12,18.1-12,29.1c0,11,4.3,21.3,12,29.1l83.3,83.3l83.3-83.3    c7.8-7.8,12-18.1,12-29.1c0-11-4.3-21.3-12-29.1c-16-16-42.1-16-58.2,0l-15.1,15.1c-2.7,2.7-6.2,4.1-10,4.1c-3.8,0-7.3-1.5-10-4.1    l-15.1-15.1C249.8,181.8,239.5,177.5,228.5,177.5z"/>
		<path class="st1" d="M352.5,405c-11.8,0-23.6-4.5-32.6-13.5l-43-43l6.1-6.1l-5.6-5.5l88.5-89.1c22.5-22.5,59-22.5,81.4,0    c22.4,22.4,22.4,59,0,81.4l-62.3,62.3C376.2,400.5,364.3,405,352.5,405z M294.6,342.9l36.9,36.9c11.6,11.6,30.4,11.6,42,0    l62.3-62.3c16-16,16-42.1,0-58.2c-16-16-42.1-16-58.2,0L294.6,342.9z"/>
		<path class="st1" d="M213.5,405c-11.8,0-23.6-4.5-32.6-13.5l-62.3-62.3c-22.4-22.4-22.4-59,0-81.4c22.5-22.4,59-22.4,81.4,0    l94.9,94.9l-48.8,48.8C237.1,400.5,225.3,405,213.5,405z M159.3,247.4c-10.5,0-21.1,4-29.1,12c-16,16-16,42.1,0,58.2l62.3,62.3    c11.6,11.6,30.4,11.6,42,0l37.2-37.2l-83.3-83.3C180.4,251.4,169.8,247.4,159.3,247.4z"/>
	</g>
</g>
</svg>