<?xml version="1.0" standalone="no"?>
<!DOCTYPE svg PUBLIC "-//W3C//DTD SVG 1.1//EN" "http://www.w3.org/Graphics/SVG/1.1/DTD/svg11.dtd">
<svg xmlns="http://www.w3.org/2000/svg" xmlns:xlink="http://www.w3.org/1999/xlink" version="1.1" id="Layer_1" x="0px" y="0px" viewBox="0 0 566 566" style="enable-background:new 0 0 566 566;" xml:space="preserve" width="566" height="566">
<style type="text/css">
	.st0{fill:#FFFFEC;}
	.st1{fill:#E10098;}
</style>
<circle class="st0" cx="283" cy="283" r="283"/>
<path class="st1" d="M283,531.5c-66.4,0-128.8-25.8-175.7-72.8S34.5,349.4,34.5,283s25.8-128.8,72.8-175.7S216.6,34.5,283,34.5  s128.8,25.8,175.7,72.8s72.8,109.3,72.8,175.7s-25.8,128.8-72.8,175.7S349.4,531.5,283,531.5z M283,49.5  C154.2,49.5,49.5,154.2,49.5,283S154.2,516.5,283,516.5S516.5,411.8,516.5,283S411.8,49.5,283,49.5z"/>
<g>
	<path class="st1" d="M171.1,383.9c-13.9,0-26.9-5.4-36.7-15.2c-9.8-9.8-15.2-22.9-15.2-36.7c0-13.9,5.4-26.9,15.2-36.7l11.7-11.7   c0.3-0.3,0.3-0.7,0-0.9l-11.7-11.7c-20.3-20.3-20.3-53.2,0-73.5c9.8-9.8,22.9-15.2,36.7-15.2c13.9,0,26.9,5.4,36.7,15.2l85.6,85.6   l-85.6,85.6C198,378.5,184.9,383.9,171.1,383.9z M144.8,260.4l11.7,11.7c6,6,6,15.9,0,21.9l-11.7,11.7c-7,7-10.9,16.3-10.9,26.3   c0,9.9,3.9,19.2,10.9,26.3c7,7,16.3,10.9,26.3,10.9c9.9,0,19.2-3.9,26.3-10.9l75.2-75.2l-75.2-75.2c-7-7-16.3-10.9-26.3-10.9   c-9.9,0-19.2,3.9-26.3,10.9C130.3,222.3,130.3,245.9,144.8,260.4L144.8,260.4z"/>
	<path class="st1" d="M283,293.5l-85.6-85.6c-9.8-9.8-15.2-22.9-15.2-36.7c0-13.9,5.4-26.9,15.2-36.7c9.8-9.8,22.9-15.2,36.7-15.2   c13.9,0,26.9,5.4,36.7,15.2l11.7,11.7c0.3,0.3,0.7,0.3,0.9,0l11.7-11.7c20.3-20.3,53.2-20.3,73.5,0c9.8,9.8,15.2,22.9,15.2,36.7   c0,13.9-5.4,26.9-15.2,36.7L283,293.5z M234.1,133.9c-9.9,0-19.2,3.9-26.3,10.9c-7,7-10.9,16.3-10.9,26.3c0,9.9,3.9,19.2,10.9,26.3   l75.2,75.2l75.2-75.2c7-7,10.9-16.3,10.9-26.3c0-9.9-3.9-19.2-10.9-26.3c-14.5-14.5-38-14.5-52.5,0L294,156.5c-6,6-15.9,6-21.9,0   l-11.7-11.7C253.3,137.8,244,133.9,234.1,133.9z"/>
	<path class="st1" d="M394.9,383.9c-13.9,0-26.9-5.4-36.7-15.2L272.5,283l85.6-85.6c9.8-9.8,22.9-15.2,36.7-15.2   c13.9,0,26.9,5.4,36.7,15.2c9.8,9.8,15.2,22.9,15.2,36.7c0,13.9-5.4,26.9-15.2,36.7L420,282.5c-0.1,0.1-0.2,0.3-0.2,0.5   s0.1,0.3,0.2,0.5l11.7,11.7c20.3,20.3,20.3,53.2,0,73.5C421.9,378.5,408.8,383.9,394.9,383.9z M293.5,283l75.2,75.2   c7,7,16.3,10.9,26.3,10.9c9.9,0,19.2-3.9,26.3-10.9c14.5-14.5,14.5-38,0-52.5L409.5,294c-2.9-2.9-4.5-6.8-4.5-11   c0-4.1,1.6-8,4.5-11l11.7-11.7c7-7,10.9-16.3,10.9-26.3c0-9.9-3.9-19.2-10.9-26.3c-7-7-16.3-10.9-26.3-10.9   c-9.9,0-19.2,3.9-26.3,10.9L293.5,283z"/>
	<path class="st1" d="M331.9,446.9c-13.9,0-26.9-5.4-36.7-15.2L283.5,420c-0.3-0.3-0.7-0.3-0.9,0l-11.7,11.7   c-20.3,20.3-53.2,20.3-73.5,0c-9.8-9.8-15.2-22.9-15.2-36.7c0-13.9,5.4-26.9,15.2-36.7l85.6-85.6l85.6,85.6   c9.8,9.8,15.2,22.9,15.2,36.7c0,13.9-5.4,26.9-15.2,36.7C358.8,441.5,345.8,446.9,331.9,446.9z M283,405c4,0,7.9,1.5,11,4.5   l11.7,11.7c7,7,16.3,10.9,26.3,10.9c9.9,0,19.2-3.9,26.3-10.9s10.9-16.3,10.9-26.3c0-9.9-3.9-19.2-10.9-26.3L283,293.5l-75.2,75.2   c-7,7-10.9,16.3-10.9,26.3c0,9.9,3.9,19.2,10.9,26.3c14.5,14.5,38,14.5,52.5,0l11.7-11.7C275.1,406.5,279,405,283,405z"/>
</g>
</svg>